<svg width="21" height="23" viewBox="0 0 21 23" fill="none" xmlns="http://www.w3.org/2000/svg">
<path id="Vector" d="M15.0728 6.2C15.0728 4.96 14.4528 4.34 13.2128 4.34H7.94279C6.7028 4.34 6.08281 4.96 6.08281 6.2V16.12C6.08281 17.36 6.7028 17.98 7.94279 17.98H13.2128C14.4528 17.98 15.0728 17.36 15.0728 16.12V6.2ZM20.6528 16.12C20.6528 18.29 20.1568 19.871 19.1648 20.863C18.1935 21.8343 16.6228 22.32 14.4528 22.32H6.7028C4.5328 22.32 2.95181 21.8343 1.95981 20.863C0.988475 19.871 0.502808 18.29 0.502808 16.12V6.2C0.502808 4.03 0.988475 2.45933 1.95981 1.488C2.95181 0.496 4.5328 0 6.7028 0H14.4528C16.6228 0 18.1935 0.496 19.1648 1.488C20.1568 2.45933 20.6528 4.03 20.6528 6.2V16.12Z" fill="white"/>
</svg>
