<svg width="19" height="23" viewBox="0 0 19 23" fill="none" xmlns="http://www.w3.org/2000/svg">
<path id="Vector" d="M18.3123 21.7001C13.7036 22.1134 9.88027 22.3201 6.84227 22.3201C4.81694 22.3201 3.32894 21.8447 2.37827 20.8941C1.42761 19.9434 0.952271 18.4554 0.952271 16.4301V6.51006C0.952271 4.34006 1.43794 2.76939 2.40927 1.79806C3.40127 0.806059 4.98228 0.310059 7.15228 0.310059H18.3123V4.65006H8.39227C7.15227 4.65006 6.53227 5.27006 6.53227 6.51006V16.4301C6.53227 16.9054 6.66661 17.2877 6.93527 17.5771C7.22461 17.8457 7.58627 17.9801 8.02027 17.9801C8.45427 17.9801 8.92961 17.9801 9.44627 17.9801C9.96294 17.9594 10.5003 17.9387 11.0583 17.9181C11.6163 17.8974 12.1743 17.8767 12.7323 17.8561C13.3109 17.8354 14.0446 17.7941 14.9333 17.7321C15.8426 17.6701 16.9689 17.5977 18.3123 17.5151V21.7001Z" fill="white"/>
</svg>
