<svg width="21" height="23" viewBox="0 0 21 23" fill="none" xmlns="http://www.w3.org/2000/svg">
<path id="Vector" d="M14.8777 6.2C14.8777 4.96 14.2577 4.34 13.0177 4.34H7.74774C6.50774 4.34 5.88774 4.96 5.88774 6.2V16.12C5.88774 17.36 6.50774 17.98 7.74774 17.98H13.0177C14.2577 17.98 14.8777 17.36 14.8777 16.12V6.2ZM20.4577 16.12C20.4577 18.29 19.9617 19.871 18.9697 20.863C17.9984 21.8343 16.4277 22.32 14.2577 22.32H6.50774C4.33774 22.32 2.75674 21.8343 1.76474 20.863C0.793403 19.871 0.307739 18.29 0.307739 16.12V6.2C0.307739 4.03 0.793403 2.45933 1.76474 1.488C2.75674 0.496 4.33774 0 6.50774 0H14.2577C16.4277 0 17.9984 0.496 18.9697 1.488C19.9617 2.45933 20.4577 4.03 20.4577 6.2V16.12Z" fill="white"/>
</svg>
