<svg width="18" height="23" viewBox="0 0 18 23" fill="none" xmlns="http://www.w3.org/2000/svg">
<path id="Vector" d="M17.5359 21.7001C12.9272 22.1134 9.1039 22.3201 6.0659 22.3201C4.04057 22.3201 2.55257 21.8447 1.60191 20.8941C0.651239 19.9434 0.175903 18.4554 0.175903 16.4301V6.51006C0.175903 4.34006 0.661571 2.76939 1.6329 1.79806C2.6249 0.806059 4.20591 0.310059 6.37591 0.310059H17.5359V4.65006H7.61591C6.37591 4.65006 5.75591 5.27006 5.75591 6.51006V16.4301C5.75591 16.9054 5.89024 17.2877 6.15891 17.5771C6.44824 17.8457 6.8099 17.9801 7.2439 17.9801C7.6779 17.9801 8.15324 17.9801 8.66991 17.9801C9.18657 17.9594 9.72391 17.9387 10.2819 17.9181C10.8399 17.8974 11.3979 17.8767 11.9559 17.8561C12.5346 17.8354 13.2682 17.7941 14.1569 17.7321C15.0662 17.6701 16.1926 17.5977 17.5359 17.5151V21.7001Z" fill="white"/>
</svg>
